<?xml version="1.0" encoding="utf-8"?>
<!-- Generator: Adobe Illustrator 25.0.1, SVG Export Plug-In . SVG Version: 6.00 Build 0)  -->
<svg version="1.0" id="katman_1" xmlns="http://www.w3.org/2000/svg" xmlns:xlink="http://www.w3.org/1999/xlink" x="0px" y="0px"
	 viewBox="0 0 560 400" style="enable-background:new 0 0 560 400;" xml:space="preserve">
<g>
	<path d="M98.8,164.6h19.4V236H98.8v-27.7H86.3V236H66.5v-71.4h19.8v26.6h12.5V164.6z M243.4,199.7c0.3,20-15.8,36.5-35.8,36.7
		c-14.1,0.2-27-7.8-33.1-20.5c-0.7,11.3-10.1,20.1-21.4,20.1h-30.8v-71.4h33.1c10.3,0.8,18.5,9.1,19.1,19.4
		c8.6-18,30.2-25.7,48.2-17.1C235.4,172.9,243.4,185.7,243.4,199.7z M155.8,213.3c0.2-3-2-5.6-5-6H141v12.1h9.9
		C153.9,219,156,216.3,155.8,213.3z M155.8,186.5c0.2-3-2-5.6-5-5.9H141v11.9h9.9C153.8,192.1,156,189.5,155.8,186.5z M171,195.3
		c-2,2.1-4.6,3.7-7.5,4.4c3,1,5.6,2.9,7.5,5.5C170.4,201.9,170.4,198.6,171,195.3z M225.5,199.7c-0.1-10-8.2-18.1-18.2-18
		c-10,0.1-18.1,8.2-18,18.2c0.1,10,8.2,18,18.1,18C217.4,217.9,225.5,209.8,225.5,199.7C225.5,199.8,225.5,199.7,225.5,199.7z
		 M207.4,185.4c-7.9-0.1-14.4,6.3-14.4,14.2s6.3,14.4,14.2,14.4s14.4-6.3,14.4-14.2c0,0,0-0.1,0-0.1c0.1-7.8-6.2-14.2-14.1-14.3
		C207.4,185.4,207.3,185.4,207.4,185.4L207.4,185.4z"/>
	<path d="M488.4,166c-0.5,0-0.6-0.3-0.6-0.4c0-0.1,0,0,0.3,0c0.3,0,0.5,0.1,0.6,0.4l0.7-0.4c-0.2-0.5-0.7-0.8-1.3-0.8
		c-0.6,0-1.1,0.4-1.1,1c0,0,0,0,0,0.1c0,0.6,0.5,0.9,1,1c0.5,0.1,0.7,0,0.7,0.4s0,0.3-0.5,0.3c-0.3,0-0.6-0.2-0.7-0.5l-0.6,0.4
		c0.2,0.6,0.8,0.9,1.4,0.9c0.7,0,1.3-0.4,1.3-1.1C489.5,166.7,488.9,166.2,488.4,166z"/>
	<polygon points="492.7,164.6 491.8,166.2 490.8,164.6 490,164.6 490,168.1 490.8,168.1 490.8,166.1 491.7,167.6 491.8,167.6 
		492.7,166.1 492.7,168.1 493.5,168.1 493.5,164.6 	"/>
	<path d="M344.3,190.1v44.6c0.1,0.6-0.4,1.2-1,1.2h-6.2c-3.6-0.1-6.5-3-6.5-6.6v-39.2c0.1-7.1-5.5-12.9-12.6-13c-0.3,0-0.7,0-1,0
		c-7.1-0.4-13.2,5.1-13.6,12.3c0,0.3,0,0.5,0,0.8v44.6c0.1,0.6-0.4,1.1-0.9,1.1c0,0,0,0-0.1,0h-6.1c-3.5-0.2-6.3-3-6.4-6.5v-39.2
		c0-7.5-6.1-13.6-13.6-13.6c-7.5,0-13.6,6.1-13.6,13.6V235c0,0.6-0.4,1.1-1,1.1c0,0,0,0-0.1,0h-6.2c-3.5,0-6.4-2.8-6.5-6.3v-39.6
		c-0.5-14.1,10.5-26,24.6-26.5c0.8,0,1.7,0,2.5,0c7.6-0.3,15.1,2.6,20.4,8.1c5.4-5.4,12.8-8.4,20.4-8.1c14.1-1,26.3,9.6,27.3,23.6
		C344.3,188.2,344.4,189.1,344.3,190.1z"/>
	<path d="M484.9,235.2c0.2,0.3,0.1,0.6-0.2,0.8c-0.1,0.1-0.2,0.1-0.3,0.1h-10.9c-2.9,0.3-5.6-1-7.2-3.4l-11.2-16.4
		c-0.7-1.6-2.2-2.6-3.9-2.8c-1.7,0.2-3.2,1.3-4,2.8l-11.1,16.4c-1.6,2.4-4.4,3.7-7.3,3.4h-10.9c-0.3,0-0.6-0.3-0.6-0.6
		c0-0.1,0-0.2,0.1-0.3l21.5-31.7c1.3-1.9,1.3-4.3,0-6.2l-21.5-31.8c-0.2-0.3-0.1-0.6,0.2-0.8c0.1-0.1,0.2-0.1,0.3-0.1h10.9
		c2.9-0.3,5.7,1,7.3,3.4l11.1,16.5c0.7,1.5,2.2,2.6,4,2.8c1.7-0.2,3.2-1.2,3.9-2.8l11.2-16.5c1.6-2.4,4.4-3.7,7.2-3.4h10.9
		c0.3,0,0.5,0.3,0.5,0.6c0,0.1,0,0.2-0.1,0.3l-21.7,31.9c-1.2,1.9-1.2,4.3,0,6.2L484.9,235.2z"/>
	<path d="M413.1,164.6h-4.5c-2.3,0-4.5,1.2-5.7,3.3l-1.6,2.8c-5.9-4.7-13.2-7.3-20.8-7.2c-19.8,0-33.4,14.2-33.4,36.5
		s13.6,36.6,33.2,36.6c7.1,0.1,14.1-2.2,19.8-6.4c0.3,3.4,3.1,6,6.5,5.8h6.2c0.6,0,1.1-0.2,1.1-0.9v-69.3
		C414.1,165.2,413.7,164.7,413.1,164.6z M380.4,223c-11.4,0-19.8-8.5-19.8-23c0-14.5,8.3-22.9,19.8-22.9s19.8,8.5,19.8,22.9
		C400.2,214.5,391.8,223,380.4,223z"/>
</g>
</svg>
